<svg width="1200" height="600" viewBox="0 0 1200 600" fill="none" xmlns="http://www.w3.org/2000/svg">
  <defs>
    <linearGradient id="bodyGradient" x1="160" y1="300" x2="1040" y2="300" gradientUnits="userSpaceOnUse">
      <stop stop-color="#2563EB" />
      <stop offset="1" stop-color="#1D4ED8" />
    </linearGradient>
    <linearGradient id="glassGradient" x1="450" y1="220" x2="760" y2="400" gradientUnits="userSpaceOnUse">
      <stop stop-color="#C4E3FF" stop-opacity="0.85" />
      <stop offset="1" stop-color="#1E3A8A" stop-opacity="0.3" />
    </linearGradient>
  </defs>

  <ellipse cx="600" cy="505" rx="360" ry="32" fill="#020617" fill-opacity="0.45" />

  <rect x="180" y="145" width="840" height="310" rx="156" fill="url(#bodyGradient)" />
  <rect x="250" y="190" width="700" height="220" rx="110" fill="#1E40AF" fill-opacity="0.65" />

  <rect x="425" y="198" width="350" height="205" rx="98" fill="url(#glassGradient)" />
  <rect x="592" y="198" width="16" height="205" rx="8" fill="#93C5FD" fill-opacity="0.8" />

  <rect x="300" y="262" width="46" height="76" rx="20" fill="#93C5FD" fill-opacity="0.45" />
  <rect x="854" y="262" width="46" height="76" rx="20" fill="#93C5FD" fill-opacity="0.45" />

  <rect x="188" y="236" width="30" height="128" rx="14" fill="#BFDBFE" fill-opacity="0.55" />
  <rect x="982" y="236" width="30" height="128" rx="14" fill="#BFDBFE" fill-opacity="0.55" />

  <rect x="205" y="286" width="64" height="28" rx="14" fill="#0F172A" fill-opacity="0.8" />
  <rect x="930" y="286" width="64" height="28" rx="14" fill="#0F172A" fill-opacity="0.8" />
</svg>
